<svg width="681" height="223" viewBox="0 0 681 223" fill="none" xmlns="http://www.w3.org/2000/svg">
<g opacity="0.1" clip-path="url(#clip0_533_1529)">
<path d="M644.887 184.23L644.998 176.942L636.279 175.384V164.953H634.722V175.073L627.095 176.942V184.23H624.459V197.699H592.007V234.713H624.459V235.823H648.868V184.23H644.887Z" stroke="white" stroke-width="0.728435" stroke-miterlimit="10"/>
<path d="M324.658 89.7878L324.69 89.5037H324.56V89.5755L324.609 89.6536C324.631 89.69 324.647 89.7472 324.659 89.7868L324.658 89.7878Z" stroke="white" stroke-width="0.728435" stroke-miterlimit="10"/>
<path d="M31.7157 149.215V137.647H29.2182V123.598H21.1753V115.749H17.8474V96.3303H15.6277V115.749H13.1302V123.598H10.6348V235.981H26.7218V236.395H30.6054V236.811H33.3786V149.215H31.7157Z" stroke="white" stroke-width="0.728435" stroke-miterlimit="10"/>
<path d="M663.692 190.474H637.383V236.05H663.692V190.474Z" stroke="white" stroke-width="0.728435" stroke-miterlimit="10"/>
<path d="M109.057 211.216V211.176H106.137L106.135 189.092V97.4156H106.066L106.041 97.3916C106.032 97.3531 106.018 97.3146 105.997 97.2793L105.791 96.9286H105.89V96.198H105.365L104.752 95.1512C104.679 95.0242 104.545 94.9451 104.397 94.9451L84.9415 94.9535V92.2999C85.1683 92.2978 85.3525 92.1615 85.3525 91.9346C85.3525 91.7078 85.1683 91.5735 84.9415 91.5714V91.0834C85.1683 91.0792 85.3525 90.8232 85.3525 90.5943C85.3525 90.3654 85.1683 90.1125 84.9415 90.1083V68.3646C84.9415 68.1335 84.6845 67.9493 84.4555 67.9493C84.2266 67.9493 83.9675 68.1335 83.9675 68.3646V88.8898H83.4087C83.1787 88.8898 82.9934 89.076 82.9934 89.3029V94.9524H81.2067C80.9788 94.9524 80.7998 95.1408 80.7998 95.3697V208.008H63.9209C63.6899 208.008 63.5057 208.192 63.5057 208.422V224.816H60.2663C60.0373 224.816 59.8521 225.002 59.8521 225.231V233.826H59.8896C59.9541 233.971 60.0977 234.074 60.2663 234.074H105.726C105.835 234.074 105.941 234.01 106.019 233.93C106.047 233.902 106.065 233.864 106.084 233.826H108.886C109.115 233.826 109.301 233.643 109.301 233.413V211.589C109.301 211.422 109.2 211.279 109.058 211.214L109.057 211.216Z" stroke="white" stroke-width="0.728435" stroke-miterlimit="10"/>
<path d="M264.021 160.173C264.005 160.08 263.966 159.998 263.911 159.928V157.219C263.911 156.914 263.663 156.665 263.357 156.665H263.163C263.186 154.778 262.891 149.847 259.576 145.341C259.193 144.818 258.415 143.889 257.513 143.076H257.533V142.518H256.844C256.796 142.482 256.748 142.445 256.7 142.41V140.855H256.979V140.3H256.7V130.868H256.979V130.315H256.7V129.482H256.165L256.155 115.903L255.87 115.891V108.956H254.206V115.891L253.952 115.907L253.973 129.482H253.373V130.315H253.095V130.868H253.373V140.3H253.095V140.855H253.373V141.903C251.982 142.655 250.385 144.331 249.641 145.342C246.317 149.862 246.04 154.809 246.069 156.685C245.809 156.73 245.605 156.947 245.605 157.22V160.272C245.605 160.345 245.621 160.414 245.647 160.477C245.654 160.497 245.667 160.512 245.677 160.53C245.7 160.572 245.724 160.612 245.756 160.646C245.772 160.663 245.79 160.676 245.808 160.691C245.842 160.719 245.877 160.744 245.917 160.763C245.94 160.775 245.963 160.782 245.987 160.79C246.008 160.798 246.026 160.81 246.049 160.814C246.961 161.274 250.755 165.073 250.426 174.923C250.404 175.571 250.376 176.331 250.342 177.191H249.49C249.185 177.191 248.935 177.438 248.935 177.746V179.688C248.935 179.995 249.184 180.244 249.49 180.244H250.212C249.775 190.013 248.815 208.16 247.439 232.642L247.363 234.024C247.353 234.175 247.408 234.325 247.514 234.437C247.619 234.548 247.764 234.609 247.916 234.609H261.613C261.766 234.609 261.912 234.546 262.018 234.437C262.122 234.323 262.176 234.172 262.167 234.02C262.085 232.669 260.15 196.853 259.426 180.244H260.864C261.17 180.244 261.417 179.996 261.417 179.688V177.746C261.417 177.439 261.17 177.191 260.864 177.191H259.298C259.264 176.348 259.235 175.584 259.213 174.923C258.878 164.839 262.875 161.109 263.674 160.788C263.925 160.695 264.073 160.437 264.024 160.173H264.021Z" stroke="white" stroke-width="0.728435" stroke-miterlimit="10"/>
<path d="M665.81 114.668C665.776 114.661 664.897 114.466 663.557 114.466C662.429 114.466 661.03 114.604 659.546 115.068V95.8277C659.546 95.476 659.262 95.1919 658.911 95.1919H656.887C656.538 95.1919 656.253 95.476 656.253 95.8277V116.664C655.884 116.917 655.518 117.197 655.158 117.507C654.966 117.677 654.776 117.858 654.593 118.06C654.426 118.246 654.26 118.45 654.102 118.663C654.099 118.669 654.095 118.674 654.09 118.678C653.92 118.913 653.754 119.164 653.597 119.432C653.436 119.162 653.269 118.906 653.095 118.667C652.936 118.45 652.768 118.247 652.599 118.06C652.421 117.861 652.23 117.677 652.033 117.507C650.795 116.439 649.484 115.734 648.214 115.273V95.8277C648.214 95.476 647.93 95.1919 647.578 95.1919H645.557C645.205 95.1919 644.922 95.476 644.922 95.8277V114.541C644.443 114.495 643.989 114.478 643.573 114.478C642.191 114.478 641.28 114.676 641.241 114.687C640.953 114.75 640.748 115.008 640.748 115.305V233.698C640.748 234.049 641.031 234.331 641.383 234.331H653.294C653.427 234.331 653.546 234.293 653.645 234.227H654.092C654.193 234.293 654.314 234.331 654.443 234.331H665.667C666.02 234.331 666.303 234.048 666.303 233.698V115.289C666.303 114.992 666.099 114.734 665.809 114.668H665.81Z" stroke="white" stroke-width="0.728435" stroke-miterlimit="10"/>
<path d="M619.504 180.613L617.626 171.221L619.374 166.748C619.427 166.628 619.427 166.5 619.39 166.381L617.819 161.37L618.601 156.069C618.606 156.042 618.611 156.015 618.611 155.99V142.014C618.611 141.708 618.364 141.459 618.058 141.459H592.722C592.415 141.459 592.169 141.709 592.169 142.014V156.137L591.172 161.414C591.158 161.502 591.162 161.59 591.182 161.67L592.54 166.318L590.797 170.767C590.753 170.874 590.749 170.991 590.778 171.102L593.153 180.603L591.486 186.089C591.471 186.14 591.463 186.196 591.463 186.251V236.118C591.463 236.267 591.522 236.404 591.626 236.509C591.732 236.613 591.869 236.67 592.017 236.67L600.091 236.625C600.16 236.655 600.234 236.67 600.307 236.67H600.453C600.453 236.67 600.458 236.67 600.46 236.67H600.462L608.54 236.626C608.603 236.654 608.675 236.67 608.754 236.67C608.833 236.67 608.909 236.654 608.977 236.623L618.056 236.572C618.36 236.571 618.608 236.321 618.607 236.017L618.407 186.102L619.501 180.831C619.515 180.759 619.515 180.686 619.501 180.612L619.504 180.613Z" stroke="white" stroke-width="0.728435" stroke-miterlimit="10"/>
<path d="M479.793 130.364L476.206 125.635C476.17 125.586 476.129 125.545 476.081 125.514L471.482 122.447C471.395 122.388 471.301 122.352 471.189 122.358L469.633 122.372V122.179H469.799C470.087 122.179 470.321 121.946 470.321 121.659V119.245C470.321 118.954 470.087 118.723 469.799 118.723H468.146V116.102C468.146 115.814 467.912 115.579 467.624 115.579H466.725L466.72 114.979C466.916 114.903 467.052 114.714 467.052 114.493V100.916C467.052 100.657 466.865 100.441 466.618 100.4L466.549 85.0697C466.677 84.975 466.76 84.8209 466.76 84.6503C466.76 84.618 466.757 84.5858 466.75 84.5535L466.45 71.0618C466.444 70.7767 466.211 70.5499 465.927 70.5499H463.916C463.631 70.5499 463.399 70.7767 463.394 71.0618L463.093 84.6388C463.089 84.7793 463.143 84.9146 463.242 85.0166C463.259 85.0343 463.277 85.0488 463.296 85.0644L463.192 100.407C462.962 100.461 462.79 100.666 462.79 100.915V114.492C462.79 114.681 462.889 114.844 463.038 114.935L463.03 115.578H462.414C462.125 115.578 461.893 115.812 461.893 116.101V118.722H460.044C459.754 118.722 459.52 118.954 459.52 119.244V121.658C459.52 121.945 459.754 122.178 460.044 122.178H460.208V122.371L458.876 122.356C458.773 122.357 458.668 122.386 458.581 122.445L453.981 125.512C453.931 125.543 453.891 125.584 453.855 125.633L450.269 130.362C450.148 130.522 450.129 130.737 450.221 130.915L452.703 135.732C452.741 135.806 452.794 135.868 452.859 135.915L457.274 139.156C457.362 139.221 457.471 139.26 457.583 139.26H458.621V140.785C458.621 141.073 458.854 141.306 459.144 141.306H459.334V144.303C459.334 144.527 459.473 144.715 459.67 144.793V147.345H459.61C459.535 147.345 459.465 147.361 459.401 147.39H457.32C457.145 147.39 456.991 147.48 456.895 147.608C456.787 147.704 456.718 147.844 456.718 147.999V150.856C456.718 150.981 456.761 151.095 456.836 151.187C456.915 151.377 457.101 151.512 457.32 151.512H459.67V156.612C459.67 156.708 459.694 156.797 459.739 156.874V232.196C459.739 232.486 459.974 232.72 460.262 232.72H470.37C470.659 232.72 470.892 232.486 470.892 232.196V151.512H473.313C473.6 151.512 473.834 151.277 473.834 150.99V147.916C473.834 147.625 473.6 147.39 473.313 147.39H472.038C471.973 147.361 471.903 147.345 471.827 147.345H470.892V144.777C471.073 144.695 471.198 144.516 471.198 144.303V141.306H471.391C471.679 141.306 471.912 141.072 471.912 140.785V139.26H472.481C472.592 139.26 472.701 139.221 472.789 139.156L477.204 135.915C477.269 135.868 477.322 135.807 477.359 135.732L479.842 130.915C479.933 130.736 479.916 130.522 479.794 130.362L479.793 130.364Z" stroke="white" stroke-width="0.728435" stroke-miterlimit="10"/>
<path d="M520.713 90.6588C520.883 90.5859 521.001 90.4194 521.001 90.2238C521.001 90.0178 520.87 89.8471 520.686 89.7815L520.677 89.4631L521.55 55.6773C521.55 55.6471 521.55 55.6159 521.548 55.5847L516.979 10.7141C516.94 10.3509 516.637 10.0752 516.268 10.0731L511.689 10.0606C511.657 10.0512 511.599 10.0658 511.561 10.0731H502.267C501.943 10.0731 501.654 10.2927 501.579 10.609L498.38 23.161H498.19L494.194 10.8556C494.096 10.5632 493.827 10.3634 493.515 10.3634H489.143C488.765 10.3634 488.452 10.66 488.43 11.0367L484.053 89.5006V89.5765L484.077 90.0688C484.05 90.1478 484.035 90.2311 484.054 90.3185L484.099 90.5298L485.801 125.417L484.346 160.098C484.344 160.115 484.344 160.137 484.346 160.157L487.183 233.046L487.075 233.824C487.047 234.032 487.108 234.236 487.244 234.39C487.38 234.545 487.574 234.637 487.777 234.637H519.77C520.154 234.637 520.471 234.328 520.481 233.944L521.549 193.77L521.743 125.147V124.811L520.712 90.6557L520.713 90.6588Z" stroke="white" stroke-width="0.728435" stroke-miterlimit="10"/>
<path d="M146.393 230.825C146.294 230.719 146.156 230.65 146 230.65H145.3C145.287 230.585 145.261 230.526 145.225 230.467C145.16 230.368 143.605 228.019 139.904 226.649L139.893 226.675C139.56 226.507 138.902 226.291 137.597 225.974C137.257 225.892 137.008 225.596 136.986 225.248L135.849 206.21V205.808C135.849 205.773 135.836 205.742 135.82 205.715L128.064 75.9351C128.059 75.8456 128.032 75.7571 127.982 75.6781L126.553 73.423C126.485 73.3158 126.444 73.192 126.432 73.0671C126.254 71.0952 126.068 69.4052 125.874 68.0243C125.869 67.9889 125.867 67.9546 125.867 67.9181V45.6551C125.867 45.4043 125.695 45.1868 125.452 45.1265C125.205 45.0703 124.958 45.1847 124.842 45.4074C124.462 46.1473 123.345 45.883 123.338 45.0505L122.975 0.901096C122.972 0.609722 122.738 0.37142 122.446 0.364136H122.433C122.147 0.364136 121.908 0.58891 121.892 0.877162L118.772 57.5941L118.715 57.7128C118.68 57.7867 118.662 57.8668 118.662 57.949V59.5786C118.662 59.5932 118.662 59.6077 118.661 59.6223L117.251 85.2549C117.247 85.2705 117.24 85.2871 117.24 85.3048C117.24 85.3152 117.244 85.3236 117.247 85.3329L117.218 85.8408C117.196 86.2622 116.846 86.5931 116.423 86.5931H115.275C115.033 86.5931 114.821 86.7523 114.754 86.9844C114.688 87.2175 114.784 87.4662 114.988 87.5932C114.997 87.5963 115.85 88.1312 116.333 88.5568C116.489 88.6952 116.604 88.8076 116.689 88.8981C116.838 89.0573 116.907 89.2727 116.892 89.4892L110.564 176.141C110.561 176.153 110.556 176.165 110.556 176.177V176.244L108.461 204.944C108.418 204.976 108.39 205.025 108.39 205.085V205.889C108.39 205.909 108.39 205.927 108.388 205.947L106.996 225.002C106.971 225.346 106.724 225.637 106.388 225.717C105.201 226.002 104.389 226.281 103.895 226.476C103.882 226.481 103.869 226.485 103.855 226.489C99.6454 227.783 97.688 230.325 97.6089 230.433C97.559 230.499 97.5257 230.571 97.5111 230.649H96.3997C96.2395 230.649 96.1 230.722 96.0012 230.833C95.8534 230.909 95.7421 231.028 95.7421 231.193V233.185C95.7421 233.349 95.8503 233.464 95.9949 233.537C96.0938 233.653 96.2353 233.729 96.3997 233.729H146.002C146.162 233.729 146.302 233.656 146.402 233.544C146.564 233.473 146.689 233.354 146.689 233.184V231.192C146.689 231.021 146.56 230.898 146.395 230.823L146.393 230.825Z" stroke="white" stroke-width="0.728435" stroke-miterlimit="10"/>
<path d="M590.924 188.941C590.834 188.66 590.575 188.473 590.282 188.473H587.959V186.29H589.516C589.851 186.29 590.134 186.045 590.183 185.712C590.232 185.385 590.03 185.069 589.711 184.969L568.174 178.464C568.157 178.45 568.138 178.436 568.121 178.42C567.972 178.307 567.783 178.267 567.602 178.296C567.422 178.267 567.234 178.307 567.083 178.42C567.065 178.436 567.048 178.449 567.03 178.464L545.493 184.969C545.174 185.069 544.974 185.384 545.022 185.712C545.071 186.044 545.355 186.29 545.69 186.29H547.868V188.473H544.174C543.876 188.473 543.614 188.665 543.528 188.95C543.494 189.06 542.746 191.67 546.129 193.63C547.678 194.53 550.628 195.94 553.48 197.305C556.092 198.555 558.559 199.736 559.42 200.274C560.938 201.224 560.938 203.587 560.938 208.766V235.266C560.938 235.639 561.24 235.942 561.613 235.942H572.842C573.214 235.942 573.516 235.639 573.516 235.266V208.766C573.516 204.739 573.516 202.311 574.277 201.043C574.473 200.721 574.714 200.475 575.036 200.274C576.113 199.604 579.435 197.988 582.647 196.429C584.824 195.375 586.878 194.38 588.294 193.646C591.102 192.202 591.24 189.937 590.922 188.941H590.924Z" stroke="white" stroke-width="0.728435" stroke-miterlimit="10"/>
<path d="M64.1645 163.5H64.1093V150.711H62.9885V151.607H59.8511V150.711H58.2818V151.607H55.3681V150.711H53.7999V151.607H50.6614V150.711H49.0921V151.607H46.1804V150.711H44.3864V151.607H41.6964V150.711H39.9045V151.607H36.9907V150.711H35.4225V154.522H34.1051L30.9811 134.313C30.9416 134.051 30.7158 133.902 30.4504 133.902H6.90947C6.64308 133.902 6.41726 134.083 6.37771 134.345L3.30684 154.931C3.28915 155.048 3.31933 155.16 3.37136 155.26V233.632C3.37136 233.93 3.62631 234.311 3.92393 234.311H40.4966C40.6568 234.311 40.7973 234.199 40.893 234.049H64.1655C64.4621 234.049 64.7035 233.808 64.7035 233.51V164.038C64.7035 163.742 64.4631 163.5 64.1655 163.5H64.1645ZM20.6738 138.111C20.7539 138.111 20.8319 138.12 20.9121 138.123C21.5177 138.228 22.0963 138.487 22.6218 138.875L22.6718 139.197L22.9371 139.157L22.9319 139.127C24.2587 140.281 25.1734 142.248 25.1734 144.385C25.1734 145.714 24.7811 147.111 24.1005 148.244L24.088 148.246L24.0901 148.26C23.266 149.625 22.0235 150.604 20.5302 150.604C20.4646 150.604 20.4043 150.619 20.346 150.641C16.8672 150.477 14.0877 147.738 14.0877 144.386C14.0877 141.034 17.043 138.111 20.6738 138.111ZM62.9875 153.176V163.499H59.85V153.176H62.9875ZM58.2818 153.176V163.499H55.3681V153.176H58.2818ZM53.7988 153.176V163.499H50.6603V153.176H53.7988ZM49.091 153.176V163.499H46.1794V153.176H49.091ZM44.3854 153.176V163.499H41.6954V153.176H44.3854ZM36.9897 153.176H39.9034V154.521H36.9897V153.176Z" stroke="white" stroke-width="0.728435" stroke-miterlimit="10"/>
<path d="M244.531 160.223H239.78V154.937C239.78 153.731 238.95 153.015 237.561 153.015H212.562C211.245 153.015 210.655 154.139 210.655 154.937V160.223H207.086C205.721 160.223 205.108 161.19 205.108 161.874V176.575C205.108 177.298 205.947 177.975 206.598 177.975H208.714V234.267C208.714 234.9 209.302 235.669 210.032 235.669H240.926C241.567 235.669 242 235.107 242 234.267V177.975H244.533C245.175 177.975 245.606 177.413 245.606 176.575V161.874C245.606 161.079 245.27 160.223 244.533 160.223H244.531ZM210.655 175.759C210.581 175.759 210.513 175.78 210.447 175.8C210.38 175.78 210.312 175.759 210.238 175.759H210.654H210.655Z" stroke="white" stroke-width="0.728435" stroke-miterlimit="10"/>
<path d="M14.2489 234.542C13.1615 230.791 9.26645 212.15 9.2269 211.96C9.19465 211.804 9.06145 211.691 8.90327 211.679C8.88558 211.594 8.87622 211.548 8.87622 211.548H8.5349C8.5349 211.548 8.36215 210.905 8.06453 209.613H7.08843C7.03224 209.353 6.97188 209.034 6.9084 208.695C6.84597 208.36 6.77832 208.01 6.70964 207.677H7.63164C7.50572 207.034 7.36731 206.387 7.22267 205.739H6.2986C6.29339 205.715 6.28923 205.693 6.28403 205.669C6.16644 205.092 6.03844 204.47 5.9094 203.807H6.83348C6.71485 203.16 6.59205 202.513 6.46197 201.869H5.53687C5.53271 201.845 5.52854 201.823 5.52334 201.799C5.40783 201.205 5.29232 200.579 5.17369 199.932H6.0988C5.98745 199.286 5.87298 198.643 5.75331 197.997H4.82821C4.82404 197.976 4.82092 197.955 4.81675 197.934L4.69084 197.202C4.62736 196.831 4.5618 196.454 4.49521 196.06H5.42135C5.31417 195.414 5.20803 194.769 5.09772 194.125H4.17053C4.16741 194.106 4.16429 194.086 4.16116 194.067C4.06126 193.458 3.9624 192.831 3.86042 192.188H4.78866C4.68772 191.543 4.58782 190.899 4.48584 190.25H3.55865L3.55032 190.197C3.47852 189.73 3.40775 189.256 3.33387 188.771L3.26831 188.318H4.19238L3.90725 186.38H2.98735L2.70638 184.445H3.63357C3.54407 183.8 3.45562 183.155 3.36717 182.508H2.43789L2.43061 182.457C2.37025 182.016 2.31198 181.568 2.25163 181.118L2.18086 180.574H3.10701C3.02272 179.927 2.93843 179.282 2.85519 178.636H1.92799L1.8385 177.949C1.78751 177.537 1.73339 177.12 1.68136 176.7H2.6096C2.52947 176.053 2.45142 175.411 2.37025 174.764H1.44202C1.43994 174.749 1.43786 174.735 1.43682 174.72C1.38271 174.275 1.33067 173.83 1.2776 173.378L1.21412 172.828H2.14236C2.06744 172.185 1.99043 171.537 1.91654 170.893H0.989352L0.89986 170.116C0.856154 169.731 0.813484 169.344 0.771859 168.959H1.7001C1.6668 168.637 1.63557 168.377 1.60331 168.087C1.56377 167.73 1.52631 167.343 1.49093 167.023H0.561658C0.560618 167.011 0.558532 166.998 0.557492 166.986C0.494014 166.351 0.433659 165.718 0.376425 165.085H1.30674C1.24847 164.442 1.19643 163.798 1.14856 163.15H0.21929C0.21929 163.141 0.218254 163.133 0.217213 163.123C0.169344 162.482 0.123556 161.847 0.0860936 161.211H1.01744C0.97582 160.568 0.940439 159.924 0.907139 159.278H-0.0231767C-0.0231767 159.271 -0.0231714 159.264 -0.024212 159.257C-0.0564712 158.614 -0.0845698 157.977 -0.110585 157.343H0.81973C0.796837 156.697 0.777062 156.051 0.758331 155.405H-0.17302V155.396C-0.188629 154.767 -0.197997 154.147 -0.207362 153.531V153.469H0.721912C0.712546 152.823 0.709422 152.179 0.7063 151.532H-0.225051C-0.229214 150.882 -0.225055 150.233 -0.215689 149.6C-0.215689 149.599 -0.215689 149.597 -0.215689 149.595H0.714627C0.71983 148.952 0.728157 148.306 0.742725 147.66H-0.188632C-0.176144 147.011 -0.157414 146.369 -0.137642 145.735C-0.137642 145.732 -0.137642 145.728 -0.137642 145.725H0.792673C0.812445 145.079 0.838464 144.434 0.867601 143.79H-0.0627144C-0.0366989 143.146 -0.00652675 142.506 0.0288544 141.87C0.0288544 141.864 0.0288554 141.857 0.029896 141.851H0.960212C0.99143 141.206 1.03098 140.562 1.0726 139.916H0.143327C0.183911 139.272 0.228654 138.634 0.276523 138.005C0.276523 137.997 0.277565 137.989 0.278606 137.981H1.20892C1.25783 137.337 1.30882 136.688 1.36397 136.045H0.434699C0.489852 135.402 0.550206 134.763 0.608481 134.142C0.609522 134.131 0.610565 134.119 0.611606 134.108H1.54088C1.60228 133.465 1.66888 132.819 1.73756 132.17H0.80932C0.879042 131.529 0.948764 130.899 1.02473 130.28L1.02785 130.251C1.02785 130.251 1.0289 130.243 1.02994 130.239H1.95921C2.03726 129.595 2.11426 128.945 2.19751 128.301H1.26928C1.35565 127.63 1.43994 126.994 1.52527 126.412C1.52735 126.397 1.52943 126.381 1.53151 126.365H2.45871C2.5482 125.721 2.64498 125.075 2.73864 124.432H1.81248C1.9103 123.782 2.0102 123.153 2.10594 122.555L2.1101 122.528C2.11218 122.517 2.11426 122.506 2.1153 122.495H3.04145C3.07163 122.171 3.09973 122.159 3.12574 121.991C3.21003 121.514 3.29017 120.881 3.37134 120.558H2.44726C2.56173 119.895 2.67724 119.275 2.7865 118.695C2.7917 118.669 2.79587 118.646 2.80107 118.62H3.72306C3.85626 117.975 3.98426 117.331 4.10393 116.686H3.18298C3.32659 115.978 3.45979 115.369 3.57633 114.843C3.57842 114.836 3.57946 114.83 3.58154 114.823C3.59506 114.8 3.60651 114.774 3.61484 114.75H4.51498C4.53059 114.75 4.55036 114.591 4.56492 114.514C4.72726 113.767 4.85006 113.265 4.9177 113.01C4.94996 112.878 4.96556 112.815 4.96556 112.815H-1.81825C-1.82137 112.589 -1.82345 112.36 -1.82449 112.128H-1.78286V111.89H-1.82553C-1.82553 111.854 -1.82553 111.819 -1.82553 111.783C-1.82241 111.576 -1.81825 111.368 -1.81512 111.159H-1.78182V110.919H-1.80992C-1.80576 110.676 -1.80055 110.434 -1.79535 110.19H-1.78078V109.952H-1.79015C-1.69025 105.176 -1.51126 100.129 -1.402 97.2657C-1.32916 95.8504 -1.27608 94.967 -1.274 94.9368C-1.26359 94.7869 -1.34997 94.6475 -1.48629 94.5871L-12.2057 89.8232C-12.3056 89.7795 -12.4191 89.7826 -12.5158 89.8305C-12.6116 89.8814 -12.6813 89.972 -12.7031 90.0781C-12.7083 90.1031 -12.8114 90.6036 -12.9852 91.56H-13.0726V91.8003H-13.0278C-13.2411 92.9867 -13.546 94.7765 -13.9061 97.17L-15.696 96.5508V96.3593H-15.9353V96.4675L-18.6003 95.5455V95.3926H-18.8407V95.4623L-20.462 94.9014C-20.5713 94.865 -20.693 94.8816 -20.7877 94.9472C-20.8824 95.0169 -20.9386 95.1251 -20.9386 95.2386C-20.9386 95.4831 -21.0219 117.611 -20.4766 138.027H-20.4943V138.265H-20.4693C-20.4631 138.509 -20.4558 138.751 -20.4495 138.995H-20.4943V139.235H-20.4433C-20.436 139.477 -20.4298 139.72 -20.4225 139.962H-20.4943V140.203H-20.4152C-20.4079 140.446 -20.4006 140.689 -20.3933 140.931H-20.4932V141.172H-20.3861C-20.3788 141.415 -20.3715 141.658 -20.3632 141.9H-20.4932V142.14H-20.3559C-20.334 142.829 -20.3111 143.514 -20.2882 144.194C-20.1748 147.483 -20.0239 151.031 -19.848 154.685V154.723H-19.846C-19.8345 154.965 -19.822 155.206 -19.8106 155.45H-19.848V155.69H-19.7991C-18.7991 176.063 -17.0862 199.29 -17.0665 199.569C-17.0654 199.583 -17.0581 199.594 -17.0561 199.608L-17.0509 199.947C-17.0415 200.601 -17.028 201.246 -17.0124 201.887L-17.0103 201.964C-16.9978 202.585 -16.9853 203.205 -16.9697 203.824C-16.9614 204.176 -16.951 204.528 -16.9416 204.875L-16.7616 210.385C-16.746 210.803 -16.7303 211.226 -16.7116 211.631C-16.3901 219.488 -15.9384 225.882 -15.6127 229.899V234.147H-15.3734V232.701C-15.2683 233.867 -15.2027 234.508 -15.2006 234.531C-15.1809 234.714 -15.0289 234.854 -14.8447 234.854L13.9191 235.066H13.9264C14.1251 235.066 14.2854 234.904 14.2854 234.705C14.2854 234.65 14.2739 234.599 14.251 234.551L14.2489 234.542ZM-19.0322 156.653H-19.0239C-19.0103 156.894 -18.9968 157.138 -18.9822 157.38H-18.9947C-19.0072 157.138 -19.0187 156.895 -19.0312 156.653H-19.0322ZM-18.5733 164.156H-18.6014V163.709C-18.592 163.858 -18.5827 164.007 -18.5733 164.156ZM-18.4484 166.093H-18.5265C-18.54 165.851 -18.5546 165.607 -18.5681 165.364H-18.4963C-18.4807 165.607 -18.4651 165.85 -18.4484 166.093ZM-18.6014 164.397H-18.5577C-18.5421 164.64 -18.5265 164.882 -18.5109 165.125H-18.5806C-18.5879 165.003 -18.5941 164.88 -18.6014 164.758V164.397ZM-18.5129 166.332H-18.4328C-18.4172 166.575 -18.4005 166.818 -18.3849 167.061H-18.4713C-18.4848 166.819 -18.4994 166.575 -18.5129 166.332ZM-18.4578 167.299H-18.3693C-18.3537 167.543 -18.3371 167.787 -18.3204 168.03H-18.4151C-18.4297 167.787 -18.4432 167.543 -18.4578 167.299ZM-18.4016 168.268H-18.3048C-18.2882 168.512 -18.2725 168.754 -18.2559 168.997H-18.3589C-18.3735 168.754 -18.387 168.511 -18.4016 168.268ZM-18.9843 157.621H-18.9698C-18.9562 157.863 -18.9417 158.107 -18.9281 158.35H-18.9469C-18.9594 158.107 -18.9718 157.864 -18.9843 157.621ZM-18.9344 158.589H-18.9136C-18.899 158.832 -18.8855 159.075 -18.8709 159.319H-18.8969C-18.9094 159.075 -18.9219 158.833 -18.9344 158.589ZM-18.8844 159.555H-18.8574C-18.8522 159.639 -18.847 159.723 -18.8428 159.807V160.286H-18.847C-18.8595 160.042 -18.873 159.799 -18.8855 159.555H-18.8844ZM-18.2403 169.238C-18.1237 170.956 -18.0051 172.665 -17.8865 174.35C-17.8563 175.722 -17.824 177.052 -17.7897 178.335C-17.9739 175.432 -18.1612 172.368 -18.3454 169.238H-18.2403ZM-19.0998 155.304C-19.0978 155.351 -19.0946 155.397 -19.0926 155.444C-19.0946 155.397 -19.0967 155.351 -19.0998 155.304ZM-19.079 155.683C-19.0655 155.927 -19.052 156.17 -19.0384 156.414H-19.0447C-19.0572 156.169 -19.0686 155.927 -19.0811 155.683H-19.079Z" stroke="white" stroke-width="0.728435" stroke-miterlimit="10"/>
<path d="M82.0475 218.071V217.084C82.0475 217.045 82.0402 217.008 82.0256 216.975C81.9777 216.798 81.8237 216.667 81.6323 216.667C81.4033 216.667 81.2171 216.853 81.2171 217.084C81.2171 217.045 81.2087 217.008 81.1952 216.975C81.1463 216.798 80.9923 216.667 80.8008 216.667C80.5719 216.667 80.3856 216.853 80.3856 217.084C80.3856 217.045 80.3773 217.008 80.3637 216.975C80.3148 216.798 80.1608 216.667 79.9693 216.667C79.7404 216.667 79.5531 216.853 79.5531 217.084C79.5531 217.045 79.5448 217.008 79.5312 216.975C79.4823 216.798 79.3294 216.667 79.1379 216.667C78.909 216.667 78.7216 216.853 78.7216 217.084C78.7216 217.045 78.7133 217.008 78.6998 216.975C78.6509 216.798 78.4969 216.667 78.3064 216.667C78.0764 216.667 77.8891 216.853 77.8891 217.084V206.421C77.8891 206.383 77.8808 206.347 77.8673 206.313C77.8662 206.31 77.8631 206.307 77.861 206.304C77.8486 206.276 77.8319 206.249 77.8111 206.228L78.0598 205.253C78.1243 205.202 78.167 205.122 78.167 205.035V203.646C78.167 203.491 78.0432 203.371 77.8881 203.371H77.3345V190.887C77.3345 190.851 77.3262 190.816 77.3158 190.785L77.8184 188.569C77.86 188.52 77.8871 188.46 77.8871 188.391C77.8871 188.367 77.8787 188.346 77.8735 188.324L78.0608 187.499C78.1243 187.448 78.1659 187.37 78.1659 187.283V185.341C78.1659 185.188 78.0421 185.063 77.8871 185.063H77.3334V181.18C77.4864 181.18 77.6103 181.056 77.6103 180.903V178.959C77.6103 178.806 77.4864 178.683 77.3334 178.683H77.2211L76.7778 178.386V176.434C76.7778 176.396 76.7715 176.36 76.7559 176.326C76.7372 176.281 76.3147 175.308 75.4562 175.134C75.2866 171.779 75.0181 171.779 74.759 171.779C74.6726 171.779 74.5904 171.814 74.5279 171.877C74.4509 171.955 74.2189 172.19 74.249 175.139C73.5758 175.298 73.2563 175.991 73.1783 176.381C73.1751 176.396 73.173 176.415 73.173 176.434V178.356L72.4134 178.706C72.2948 178.761 72.2302 178.89 72.2583 179.019C72.2708 179.074 72.301 179.125 72.3405 179.163V180.9C72.3405 181.053 72.4654 181.178 72.6174 181.178V185.061H72.0627C71.9087 185.061 71.7859 185.186 71.7859 185.339V187.401C71.7859 187.424 71.788 187.454 71.7963 187.477L72.7922 190.961C72.8099 191.02 72.8463 191.071 72.8952 191.105V203.367H72.6163C72.4644 203.367 72.3395 203.488 72.3395 203.643V204.786C72.3031 204.802 72.2729 204.826 72.2479 204.862C72.1949 204.929 72.1772 205.017 72.199 205.101L72.6163 206.671V216.691C72.5726 216.675 72.5268 216.662 72.4779 216.662C72.2698 216.662 72.1043 216.819 72.0742 217.02C72.0638 217.009 72.0533 216.995 72.0429 216.983C72.0419 216.979 72.0419 216.974 72.0398 216.969C72.0044 216.841 71.916 216.738 71.7953 216.692C69.6318 214.188 62.746 207.133 53.4793 206.605V206.546L53.0422 206.564C53.0422 206.564 52.8882 206.571 52.7935 206.575C52.6822 206.571 52.5292 206.564 52.5271 206.564H52.0911V206.605C42.6589 207.143 35.7128 214.445 33.6908 216.824C33.6149 216.727 33.5014 216.661 33.3693 216.661C33.1393 216.661 32.9541 216.848 32.9541 217.079C32.9541 217.04 32.9458 217.003 32.9322 216.969C32.8833 216.793 32.7283 216.661 32.5378 216.661C32.3079 216.661 32.1216 216.848 32.1216 217.079C32.1216 217.04 32.1133 217.003 32.0997 216.969C32.0508 216.793 31.8968 216.661 31.7064 216.661C31.4754 216.661 31.2901 216.848 31.2901 217.079C31.2901 217.04 31.2818 217.003 31.2683 216.969C31.2194 216.793 31.0643 216.661 30.8739 216.661C30.6439 216.661 30.4587 216.848 30.4587 217.079C30.4587 217.04 30.4504 217.003 30.4368 216.969C30.3879 216.794 30.2329 216.661 30.0424 216.661C29.8135 216.661 29.6262 216.848 29.6262 217.079C29.6262 217.04 29.6179 217.003 29.6043 216.969C29.5554 216.793 29.4014 216.661 29.211 216.661C28.981 216.661 28.7947 216.848 28.7947 217.079C28.7947 217.04 28.7864 217.003 28.7729 216.969C28.724 216.793 28.5699 216.661 28.3795 216.661C28.1485 216.661 27.9633 216.848 27.9633 217.079C27.9633 217.04 27.9549 217.003 27.9414 216.969C27.8925 216.793 27.7385 216.661 27.547 216.661C27.3181 216.661 27.1318 216.848 27.1318 217.079C27.1318 217.04 27.1235 217.003 27.11 216.969C27.061 216.793 26.906 216.661 26.7156 216.661C26.4866 216.661 26.3004 216.848 26.3004 217.079C26.3004 217.04 26.292 217.003 26.2785 216.969C26.2296 216.793 26.0745 216.661 25.8831 216.661C25.6552 216.661 25.4679 216.848 25.4679 217.079C25.4679 217.04 25.4595 217.003 25.446 216.969C25.3971 216.793 25.2431 216.661 25.0516 216.661C24.8227 216.661 24.6364 216.848 24.6364 217.079C24.6364 217.04 24.6281 217.003 24.6145 216.969C24.5656 216.793 24.4116 216.661 24.2202 216.661C23.9912 216.661 23.8039 216.848 23.8039 217.079C23.8039 217.04 23.7956 217.003 23.782 216.969C23.7342 216.793 23.5812 216.661 23.3887 216.661C23.1587 216.661 22.9724 216.848 22.9724 217.079C22.9724 217.04 22.9641 217.003 22.9506 216.969C22.9017 216.793 22.7487 216.661 22.5562 216.661C22.3273 216.661 22.141 216.848 22.141 217.079V218.62H22.4178V233.875H82.3305V218.067H82.0527L82.0475 218.071ZM76.2231 185.064H75.6685V181.181H76.2231V185.064ZM75.1148 181.181V185.064H74.837V181.181H75.1148ZM74.2824 181.181V185.064H73.7267V181.181H74.2824Z" stroke="white" stroke-width="0.728435" stroke-miterlimit="10"/>
<path d="M203.131 234.413L202.69 232.197C202.675 232.12 202.646 232.047 202.603 231.984L200.926 229.418V213.965C200.926 213.632 200.654 213.36 200.32 213.36H197.698V211.95C197.698 211.614 197.428 211.344 197.093 211.344H190.794C191.318 208.931 192.807 201.108 191.992 193.594C191.174 186.035 187.544 178.591 184.433 175.816C184.331 175.723 184.229 175.636 184.127 175.554L183.997 171.88C184.066 171.757 184.175 171.554 184.312 171.292C185.952 168.202 191.994 155.745 191.994 139.973C191.994 124.201 186.543 120.479 184.515 119.468C185.887 117.162 190.444 108.888 190.532 100.609C190.634 91.0481 188.688 88.2956 184.531 84.6722C184.463 84.6129 184.395 84.5515 184.327 84.4922C181.104 81.6357 177.874 78.3213 177.026 74.7873C176.946 74.4294 176.848 74.0776 176.805 73.7394C176.783 73.5032 176.726 73.2659 176.726 73.0318V62.9419C176.726 62.6069 176.456 62.3363 176.122 62.3363C175.788 62.3363 175.516 62.6069 175.516 62.9419V71.8632C175.516 71.8632 175.516 71.8642 175.516 71.8653C175.484 71.9339 175.464 72.0099 175.46 72.09C175.459 72.1119 175.415 72.8643 175.255 74.0974C174.718 74.7353 170.505 79.9249 167.644 88.7431C167.088 89.0105 166.691 89.2988 166.489 89.5818C166.042 90.2073 166.042 90.8306 166.128 91.2718L166.201 91.5497C166.234 91.6444 166.261 91.7016 166.261 91.7016C166.295 91.7692 166.347 91.8296 166.413 91.8712L166.65 92.1959C166.406 93.1626 166.185 94.1679 165.985 95.2033H163.016C162.793 95.2033 162.591 95.3261 162.484 95.5217C162.427 95.6237 156.86 106.051 156.86 118.097C156.86 121.051 157.226 124.001 157.778 126.778C158.628 134.695 160.616 138.76 162.305 140.832C162.543 141.36 162.73 141.757 162.844 141.995C161.983 143.915 157.062 155.314 157.062 165.346V165.981C157.059 176.241 157.058 184.367 163.442 192.358C163.36 192.575 163.228 192.911 163.077 193.302C162.607 194.501 161.824 196.507 160.729 199.484C159.901 201.733 157.97 209.223 157.473 211.177H152.041C151.713 211.177 151.444 211.438 151.436 211.764L151.407 212.938L149.001 212.906C148.837 212.897 148.684 212.968 148.567 213.082C148.453 213.195 148.389 213.35 148.389 213.514L148.384 230.875L147.495 231.993C147.448 232.051 147.415 232.119 147.392 232.191L146.712 234.355C146.653 234.538 146.685 234.739 146.8 234.894C146.914 235.048 147.096 235.14 147.287 235.14H202.535C202.716 235.14 202.886 235.063 203.002 234.92C203.119 234.783 203.163 234.597 203.127 234.418L203.131 234.413ZM174.805 76.8988C174.32 79.3973 173.492 82.5826 172.088 85.7336C171.719 86.5651 171.418 87.2207 171.155 87.7732C170.474 87.8731 169.853 88.0022 169.298 88.151C171.102 82.9271 173.347 79.0799 174.805 76.8988ZM167.728 93.6694L167.822 93.7984C167.756 93.9171 167.69 94.0347 167.62 94.1606C167.655 93.9972 167.691 93.8317 167.728 93.6694ZM183.932 89.5808C183.774 89.3602 183.497 89.1375 183.123 88.9242C181.84 88.1781 179.347 87.5422 176.138 87.5422H174.417C173.817 87.5422 173.244 87.5662 172.695 87.6057C172.879 87.1988 173.082 86.7514 173.312 86.2258C174.876 82.6721 175.736 79.1413 176.205 76.5033C177.078 78.8957 178.922 81.6877 182.737 84.8814C182.929 85.0427 183.116 85.204 183.297 85.3663C183.312 85.3809 183.33 85.3954 183.346 85.41C183.502 85.5515 183.653 85.692 183.802 85.8346C187.838 89.7338 188.815 93.8109 189.048 95.607H182.068V94.5206L184.192 91.3977C184.219 91.3592 184.239 91.3134 184.249 91.2677C184.355 90.8514 184.384 90.2177 183.931 89.5798L183.932 89.5808Z" stroke="white" stroke-width="0.728435" stroke-miterlimit="10"/>
<path d="M451.939 159.943C451.546 158.243 451.153 156.54 450.754 154.846C455.803 133.26 455.376 108.562 455.369 108.319C455.369 108.273 455.364 108.227 455.357 108.18V106.278C455.357 106.025 455.152 105.817 454.898 105.817H453.445C453.189 105.817 452.982 106.025 452.982 106.278V107.188L424.538 107.18V106.278C424.538 106.025 424.333 105.817 424.077 105.817H422.644C422.389 105.817 422.183 106.025 422.183 106.278V109.025C422.183 109.079 422.194 109.133 422.215 109.185C422.231 113.48 422.527 133.47 426.18 154.01C426.168 154.067 426.168 154.127 426.18 154.188C426.185 154.214 426.265 154.599 426.408 155.273C426.425 155.366 426.441 155.459 426.459 155.553C426.449 155.583 426.441 155.613 426.436 155.643C420.573 181.121 422.44 218.551 424.739 232.929C424.83 233.49 425.311 233.899 425.882 233.899H425.892L451.436 233.744C452.005 233.744 452.482 233.336 452.572 232.779C453.249 228.547 458.981 190.566 451.937 159.945L451.939 159.943Z" stroke="white" stroke-width="0.728435" stroke-miterlimit="10"/>
<path d="M412.43 65.8328C412.313 65.7568 412.163 65.7464 412.034 65.8026L403.749 69.5322C403.599 69.5998 403.506 69.7476 403.506 69.9089V73.4074H400.687V59.9678C400.687 59.7399 400.502 59.5516 400.273 59.5516H400.17V55.4109C400.17 55.2288 400.049 55.0727 399.885 55.0186V45.4709C399.885 45.242 399.699 45.0568 399.469 45.0568H399.003C398.775 45.0568 398.589 45.242 398.589 45.4709V55.0186C398.422 55.0738 398.304 55.2299 398.304 55.4109V59.5516H398.201C397.971 59.5516 397.787 59.7399 397.787 59.9678V73.4074H395.251V59.9678C395.251 59.7399 395.065 59.5516 394.834 59.5516H394.733V55.4109C394.733 55.2288 394.613 55.0727 394.448 55.0186V45.4709C394.448 45.242 394.262 45.0568 394.034 45.0568H393.569C393.339 45.0568 393.153 45.242 393.153 45.4709V55.0186C392.988 55.0738 392.869 55.2299 392.869 55.4109V59.5516H392.767C392.537 59.5516 392.35 59.7399 392.35 59.9678V73.4074H389.219V69.9089C389.219 69.7476 389.124 69.5998 388.975 69.5322L380.69 65.8026C380.561 65.7454 380.411 65.7568 380.294 65.8328C380.176 65.9098 380.105 66.0409 380.105 66.1803V234.559C380.105 234.787 380.29 234.973 380.521 234.973H382.368C382.438 235.031 382.523 235.068 382.619 235.068H410.145C410.243 235.068 410.328 235.031 410.399 234.973H412.205C412.434 234.973 412.621 234.787 412.621 234.559V66.1803C412.621 66.0409 412.549 65.9098 412.431 65.8328H412.43ZM403.506 95.0586H402.58V92.6662C402.58 92.4383 402.392 92.251 402.161 92.251H400.922V83.3485H403.506V95.0586ZM397.123 83.3485V92.251H395.502V83.3485H397.123ZM391.705 83.3485V92.251H390.082C389.854 92.251 389.668 92.4383 389.668 92.6662V95.0586H389.217V83.3485H391.705Z" stroke="white" stroke-width="0.728435" stroke-miterlimit="10"/>
<path d="M238.297 229.671H238.329V229.695C238.32 229.685 238.307 229.68 238.297 229.671ZM385.938 229.694V229.671H385.969C385.959 229.68 385.947 229.685 385.938 229.694ZM388.554 228.335C388.551 228.06 388.328 227.841 388.057 227.841H388.055L371.793 227.888V223.625C371.793 223.35 371.571 223.129 371.295 223.129H359.955V219.739H361.194C361.468 219.739 361.692 219.516 361.692 219.241V218.128C361.692 217.855 361.467 217.632 361.194 217.632H338.819V26.8303C338.819 26.4161 338.485 26.0831 338.074 26.0831H337.805C337.805 26.0831 337.798 26.0821 337.795 26.0821H287.253C287.253 26.0821 287.246 26.0831 287.241 26.0831H287.03C286.616 26.0831 286.285 26.4161 286.285 26.8303V217.633H263.072C262.797 217.633 262.573 217.856 262.573 218.129V219.242C262.573 219.517 262.797 219.74 263.072 219.74H264.31V223.13H252.972C252.697 223.13 252.473 223.351 252.473 223.626V227.889L236.213 227.842H236.211C235.939 227.842 235.716 228.061 235.714 228.336L235.697 230.038C235.696 230.169 235.746 230.301 235.842 230.396C235.935 230.487 236.062 230.541 236.194 230.541H237.477V233.147C237.477 233.422 237.699 233.648 237.973 233.65L304.679 233.736C304.71 233.736 304.738 233.725 304.767 233.719H319.5C319.53 233.726 319.557 233.736 319.588 233.736H319.59L386.295 233.65C386.568 233.648 386.788 233.422 386.788 233.147V230.541H388.074C388.206 230.541 388.332 230.487 388.427 230.396C388.522 230.301 388.572 230.17 388.572 230.038L388.555 228.336L388.554 228.335ZM323.859 71.3928C319.973 86.4797 313.895 92.8681 312.132 92.8681C310.258 92.8681 306.35 90.1354 301.239 71.8257C296.258 53.9884 294.908 40.6019 294.601 36.7183C298.273 35.6433 305.576 33.815 312.776 33.815C320.427 33.815 327.438 35.4997 330.469 36.3437C329.881 40.4239 327.201 58.4298 323.86 71.3939L323.859 71.3928Z" stroke="white" stroke-width="0.728435" stroke-miterlimit="10"/>
<path d="M406.508 212.277H404.964C404.945 207.129 404.017 203.598 403.239 201.551C402.056 198.11 399.293 191.685 394.087 187.328C394.024 187.275 393.944 187.246 393.863 187.246H393.232V182.326C393.232 182.197 393.129 182.094 393.002 182.094H392.911V178.197C392.911 178.07 392.806 177.967 392.677 177.967H392.419C392.29 177.967 392.188 178.071 392.188 178.197V182.094H392.099C391.97 182.094 391.867 182.197 391.867 182.326V187.246H391.027C390.833 187.246 390.678 187.403 390.678 187.595V188.948H390.408C389.842 188.368 389.262 187.822 388.67 187.328C388.607 187.275 388.528 187.246 388.446 187.246H387.815V182.326C387.815 182.197 387.711 182.094 387.581 182.094H387.491V178.197C387.491 178.07 387.387 177.967 387.261 177.967H387.001C386.875 177.967 386.77 178.071 386.77 178.197V182.094H386.679C386.551 182.094 386.447 182.197 386.447 182.326V187.246H385.608C385.415 187.246 385.26 187.405 385.26 187.597V191.806H383.026C382.946 191.806 382.869 191.832 382.808 191.882L382.552 192.087C382.535 192.099 382.518 192.116 382.505 192.131C381.821 192.923 380.169 194.931 378.564 197.641C378.143 195.961 377.767 194.857 377.592 194.376C377.609 194.316 377.609 194.252 377.591 194.191C376.252 189.495 373.922 185.293 372.004 182.352C372.001 182.339 371.995 182.328 371.983 182.32C370.805 180.517 369.786 179.192 369.251 178.526C369.238 178.509 369.224 178.492 369.207 178.479L368.893 178.209C368.829 178.157 368.75 178.126 368.665 178.126H365.871V176.045C365.883 176.034 365.893 176.02 365.893 176.001C365.893 175.984 365.883 175.969 365.87 175.957V172.514C365.876 172.415 365.842 172.323 365.777 172.251C365.71 172.182 365.617 172.14 365.522 172.14H364.448V165.571C364.448 165.442 364.343 165.339 364.215 165.339H364.054V160.149C364.054 160.021 363.951 159.919 363.824 159.919H363.507C363.38 159.919 363.276 160.022 363.276 160.149V165.339H363.116C362.987 165.339 362.883 165.441 362.883 165.571V172.14H362.063C361.978 172.14 361.894 172.172 361.831 172.23C361.133 172.862 360.448 173.548 359.781 174.283H359.269V172.489C359.269 172.296 359.113 172.14 358.92 172.14H357.848V165.571C357.848 165.442 357.744 165.339 357.614 165.339H357.454V160.149C357.454 160.021 357.351 159.919 357.223 159.919H356.908C356.78 159.919 356.676 160.022 356.676 160.149V165.339H356.515C356.387 165.339 356.282 165.441 356.282 165.571V172.14H355.463C355.377 172.14 355.294 172.172 355.23 172.23C353.379 173.901 351.784 175.805 350.415 177.773H350.377C350.345 177.773 350.318 177.797 350.318 177.83C350.318 177.849 350.33 177.864 350.345 177.874C347.081 182.6 345.126 187.686 344.119 190.841C343.165 193.554 342.03 198.204 342.02 205.006H340.064C339.871 205.006 339.715 205.164 339.715 205.356V236.356C339.715 236.548 339.871 236.704 340.064 236.704H342.179C342.234 236.737 342.298 236.759 342.367 236.759H380.085C380.155 236.759 380.219 236.737 380.273 236.704H384.117C384.196 236.704 384.265 236.673 384.323 236.629H404.616C404.676 236.629 404.733 236.611 404.783 236.583H406.508C406.702 236.583 406.858 236.429 406.858 236.235V212.623C406.858 212.432 406.702 212.274 406.508 212.274V212.277ZM390.677 189.065V189.226C390.625 189.172 390.572 189.119 390.521 189.065H390.677ZM359.674 174.405C359.539 174.556 359.402 174.706 359.269 174.861V174.405H359.674Z" stroke="white" stroke-width="0.728435" stroke-miterlimit="10"/>
<path d="M561.466 205.228L561.624 204.902L562.303 205.228H561.466ZM561.99 204.15L562.923 202.232H563.853C563.933 203.159 564.016 204.1 564.101 205.06C564.104 205.099 564.108 205.143 564.111 205.183L561.99 204.15ZM566.646 204.172C566.301 200.17 565.991 196.499 565.687 192.849C564.107 173.916 562.966 160.238 558.609 131.543C552.732 92.79 549.993 83.1611 549.046 80.7885L548.415 68.1658C548.406 68.0617 548.396 67.9577 548.375 67.8578L548.191 66.9077C547.968 65.7578 546.969 64.9232 545.816 64.9232C545.725 64.9232 545.627 64.9295 545.582 64.9367C545.513 64.9409 545.444 64.9513 545.377 64.9648C545.318 64.9534 545.265 64.9461 545.225 64.943C545.142 64.9305 545.042 64.9232 544.937 64.9232C543.786 64.9232 542.788 65.7568 542.565 66.9077L542.377 67.8911C542.36 68.0014 542.344 68.1106 542.341 68.2074L541.71 80.7885C540.765 83.158 538.027 92.7848 532.148 131.543C527.79 160.237 526.65 173.916 525.065 192.913C524.785 196.286 524.466 200.108 524.114 204.172C523.367 212.8 523.103 232.192 523.242 234.083C523.328 235.359 524.389 236.359 525.655 236.359H565.104C566.368 236.359 567.429 235.36 567.518 234.087C567.655 232.172 567.39 212.752 566.646 204.172ZM559.694 177.81L559.776 177.569L560.188 177.81H559.694ZM533.946 150.766H533.258L533.8 150.369L533.946 150.766ZM530.76 177.81H530.403L530.693 177.667L530.76 177.81ZM561.718 177.727L560.055 176.754L560.686 174.905H561.445C561.538 175.849 561.628 176.789 561.718 177.727ZM557.054 150.766L557.17 150.32L557.727 150.766H557.053H557.054ZM544.244 106.528H539.363L544.244 104.076V106.528ZM544.244 110.61H538.949L544.244 107.946V110.61ZM544.244 114.558H538.801L544.244 111.82V114.558ZM544.244 115.442V118.842H537.307L544.069 115.442H544.244ZM540.348 98.0191L540.525 98.3209L540.732 98.7153L540.739 98.683L542.997 102.516H539.509C539.803 100.899 540.082 99.4052 540.348 98.0181V98.0191ZM544.244 103.401V103.444L538.857 106.153C539.03 105.173 539.199 104.233 539.362 103.327V103.401H544.243H544.244ZM538.673 107.201V107.412H544.05L538.12 110.394C538.309 109.29 538.493 108.225 538.673 107.201ZM537.932 111.496H543.634L537.586 114.539C537.576 114.544 537.57 114.553 537.561 114.559H537.417C537.593 113.506 537.765 112.486 537.933 111.497L537.932 111.496ZM537.268 115.443H542.812L536.768 118.482C536.937 117.44 537.105 116.428 537.268 115.443ZM536.564 119.726H544.244V120.046C542.006 120.243 539.974 121.147 538.37 122.536H536.11C536.264 121.579 536.415 120.641 536.563 119.726H536.564ZM535.969 123.42H537.466C536.934 124.006 536.465 124.65 536.078 125.346C536.116 125.33 536.16 125.314 536.2 125.297C535.865 125.89 535.588 126.519 535.373 127.176C535.575 125.889 535.774 124.637 535.969 123.42ZM532.473 146.756L533.52 149.606L531.936 150.767H531.892C532.07 149.449 532.256 148.098 532.45 146.708L532.473 146.756ZM529.066 174.906H529.372L530.334 176.916L528.8 177.678C528.886 176.757 528.976 175.835 529.067 174.906H529.066ZM557.387 149.496L558.079 146.854C558.25 148.081 558.415 149.276 558.574 150.447L557.387 149.496ZM546.268 115.443H546.765L553.525 118.843H546.268V115.443ZM546.268 114.559V111.659L552.033 114.559H546.268ZM546.268 110.611V107.784L551.886 110.611H546.268ZM546.268 103.913L551.473 106.529H546.268V103.913ZM534.864 130.431C534.864 130.45 534.863 130.469 534.863 130.488C534.863 134.793 537.482 138.487 541.214 140.062H533.406C533.792 137.44 534.205 134.693 534.653 131.786C534.724 131.329 534.794 130.88 534.863 130.431H534.864ZM549.294 140.062C553.027 138.486 555.646 134.792 555.646 130.488C555.646 130.475 555.645 130.463 555.645 130.449V130.44C555.714 130.886 555.783 131.332 555.854 131.786C556.302 134.693 556.716 137.44 557.103 140.062H549.294ZM552.959 123.42H554.541C554.735 124.635 554.933 125.885 555.135 127.169C554.677 125.764 553.93 124.49 552.96 123.42H552.959ZM552.051 122.535C550.469 121.165 548.47 120.263 546.268 120.05V119.725H553.945C554.094 120.639 554.245 121.578 554.399 122.535H552.051ZM548.022 115.442H553.242C553.396 116.372 553.554 117.324 553.713 118.303L548.022 115.442ZM547.202 111.495H552.578C552.741 112.45 552.907 113.436 553.077 114.452L547.203 111.495H547.202ZM546.786 107.413H551.874C552.033 108.316 552.195 109.251 552.359 110.215L546.786 107.413ZM546.504 103.4H551.161C551.31 104.229 551.463 105.084 551.622 105.974L546.505 103.4H546.504ZM547.353 102.516L550.154 97.9733C550.421 99.3719 550.703 100.882 551 102.516H547.353ZM546.659 67.2053L546.844 68.1512L547.494 81.0008L547.554 81.263C548.234 82.8906 550.934 91.3435 557.068 131.778C558.926 144.023 560.196 153.525 561.168 161.881C560.171 153.478 558.867 143.913 556.967 131.611C550.374 88.9043 547.67 81.5617 547.121 80.4233L546.453 67.3479C546.453 67.3208 546.45 67.2948 546.443 67.2688L546.324 66.6642C546.491 66.7932 546.614 66.9816 546.658 67.2063L546.659 67.2053ZM544.05 67.4634L543.391 80.4233C543.35 80.5096 543.296 80.6324 543.229 80.801L543.916 68.1554L544.05 67.4634ZM529.115 205.228H528.221L528.965 204.907L529.115 205.228ZM526.409 205.06C526.494 204.1 526.576 203.159 526.656 202.232H527.719L528.613 204.154L526.402 205.126C526.404 205.105 526.406 205.081 526.408 205.06H526.409Z" stroke="white" stroke-width="0.728435" stroke-miterlimit="10"/>
<path d="M190.646 216.759C190.646 216.66 190.645 216.556 190.643 216.45C190.651 216.647 190.646 216.759 190.646 216.759ZM213.55 197.014C212.468 196.694 210.741 196.409 208.801 196.232C207.389 195.627 204.976 194.309 203.645 191.958C203.557 191.801 203.472 191.64 203.394 191.474C202.953 190.542 202.549 189.694 202.182 188.923C201.887 188.302 201.616 187.734 201.37 187.214C200.634 185.653 200.117 184.52 199.813 183.666C199.761 183.525 199.71 183.348 199.656 183.158C199.41 182.314 199.062 181.118 198.18 180.699C197.976 180.602 197.744 180.547 197.477 180.547C197.464 180.547 197.449 180.547 197.436 180.549C196.147 180.678 195.719 181.931 195.267 183.253C195.207 183.431 195.146 183.611 195.081 183.791C194.616 185.095 193.77 187.308 191.803 191.472C190.566 194.091 187.95 195.545 186.457 196.192C184.028 196.398 182.294 196.671 181.303 197.006C180.785 197.182 180.356 197.489 180.051 197.9C180.043 197.908 180.034 197.921 180.028 197.931C179.448 198.716 179.398 199.663 179.401 200.002C179.399 200.008 179.397 200.012 179.395 200.017C179.381 200.053 179.37 200.08 179.358 200.11C179.346 200.147 179.309 200.221 179.309 200.221C179.284 200.276 179.272 200.335 179.272 200.394V202.336C179.272 202.412 179.27 202.491 179.267 202.573C179.216 204.074 179.597 205.568 184.786 208.625C184.905 208.696 185.023 208.741 185.128 208.784C185.221 208.82 185.301 208.854 185.36 208.892C185.434 208.941 185.503 208.964 185.553 208.974C185.611 209.017 185.673 209.052 185.734 209.089C185.787 209.118 185.84 209.15 185.89 209.187C185.925 209.209 185.961 209.236 185.996 209.258C186.026 209.279 186.058 209.299 186.087 209.32L186.201 209.405C186.256 209.446 186.313 209.485 186.365 209.528L186.389 209.547C186.446 209.589 186.501 209.635 186.554 209.68L186.586 209.704C186.657 209.763 186.73 209.825 186.8 209.884C186.861 209.937 186.919 209.988 186.978 210.041C187.055 210.111 187.129 210.178 187.201 210.249C187.256 210.3 187.311 210.357 187.365 210.41C187.435 210.478 187.505 210.553 187.574 210.623C187.623 210.676 187.672 210.725 187.719 210.778C187.785 210.854 187.852 210.927 187.915 211.002L187.957 211.049C187.984 211.081 188.014 211.113 188.04 211.147C188.109 211.229 188.173 211.313 188.239 211.395L188.331 211.513C188.413 211.62 188.491 211.728 188.568 211.84C188.568 211.84 188.594 211.878 188.598 211.881C188.761 212.118 188.917 212.37 189.062 212.627L189.077 212.654C189.077 212.654 189.091 212.679 189.093 212.683C189.149 212.783 189.203 212.885 189.254 212.986L189.291 213.056C189.338 213.151 189.384 213.244 189.426 213.34L189.459 213.407C189.503 213.505 189.543 213.603 189.582 213.696L189.603 213.749C189.615 213.781 189.629 213.814 189.643 213.851C189.63 213.914 189.632 213.986 189.651 214.049C189.686 214.232 189.811 215.546 189.811 216.76V233.265C189.811 233.496 189.997 233.682 190.227 233.682H204.526C204.755 233.682 204.941 233.496 204.941 233.265V233.2C204.941 232.04 204.946 215.919 205.042 214.357C205.046 214.335 205.072 214.269 205.088 214.233C205.105 214.192 205.121 214.155 205.133 214.12L205.157 214.053C205.19 213.959 205.225 213.86 205.271 213.75L205.293 213.695C205.33 213.605 205.368 213.512 205.41 213.421L205.446 213.336C205.488 213.244 205.532 213.158 205.578 213.064L205.62 212.979C205.667 212.886 205.718 212.788 205.772 212.695L205.813 212.619C205.876 212.504 205.943 212.392 206.013 212.279L206.029 212.252C206.105 212.129 206.188 212.005 206.273 211.882L206.324 211.808C206.393 211.71 206.462 211.613 206.537 211.516L206.645 211.378C206.705 211.304 206.765 211.225 206.828 211.149C206.859 211.113 206.89 211.077 206.923 211.039L206.962 210.992C207.023 210.922 207.085 210.855 207.15 210.78C207.195 210.731 207.242 210.682 207.305 210.616C207.368 210.547 207.433 210.481 207.502 210.415C207.559 210.357 207.616 210.3 207.674 210.245C207.744 210.179 207.814 210.114 207.887 210.048C207.949 209.991 208.011 209.936 208.074 209.881C208.149 209.813 208.229 209.75 208.306 209.684L208.328 209.667C208.386 209.616 208.447 209.57 208.506 209.521C208.59 209.455 208.679 209.39 208.766 209.322L208.827 209.277C208.875 209.241 208.923 209.203 208.974 209.167C209.07 209.099 209.169 209.032 209.281 208.957L209.36 208.901C209.399 208.874 209.437 208.848 209.477 208.821C209.633 208.721 209.797 208.621 209.962 208.521L210.016 208.486C214.023 206.125 214.906 204.902 215.235 203.94C215.274 203.853 215.305 203.677 215.331 202.891V200.117C215.331 199.405 215.011 197.45 213.549 197.016L213.55 197.014Z" stroke="white" stroke-width="0.728435" stroke-miterlimit="10"/>
</g>
<defs>
<clipPath id="clip0_533_1529">
<rect width="757.099" height="223" fill="white" transform="translate(-77)"/>
</clipPath>
</defs>
</svg>
